<svg xmlns="http://www.w3.org/2000/svg" version="1" width="682.667" height="682.667" viewBox="0 0 512.000000 512.000000"><link xmlns="" type="text/css" rel="stylesheet" id="dark-mode-custom-link"/><link xmlns="" type="text/css" rel="stylesheet" id="dark-mode-general-link"/><style xmlns="" lang="en" type="text/css" id="dark-mode-custom-style"/><style xmlns="" lang="en" type="text/css" id="dark-mode-native-style"/><style xmlns="" lang="en" type="text/css" id="dark-mode-native-sheet"/><path d="M67 1.9c-7.2 2.3-13.5 7.6-16.6 13.9-1.8 3.4-1.9 7.4-2.2 58l-.3 54.3 4.3-2.4c2.4-1.3 21.8-12.6 43.2-25.1C116.7 88.1 135.7 77 137.5 76c1.9-1.1 5.2-3 7.4-4.4 2.2-1.5 4.2-2.6 4.5-2.6.2 0 3.5-1.9 7.2-4.2 3.8-2.3 9-5.3 11.6-6.7 2.6-1.4 4.7-3 4.8-3.5.2-.9-7.7-5.8-23-14.3-3-1.7-11.1-6.2-17.8-10.2-6.8-3.9-12.8-7.1-13.3-7.1s-.9-.5-.9-1c0-.6-.4-1-.8-1-.5 0-7.8-4-16.4-8.9C92.3 7.3 84 2.9 82.4 2.3 78.7 1.1 70.3.9 67 1.9zM186 92.2c-13.5 7.7-27 15.4-30 17.1-3 1.6-5.9 3.3-6.5 3.7-.5.4-3 1.9-5.5 3.2-2.5 1.4-11.9 6.8-21 11.9-9.1 5.2-24.5 13.9-34.2 19.4C79 153 71 157.8 71 158.1c0 .3 2.6 2 5.7 3.8 3.2 1.7 8.1 4.4 10.8 6 2.8 1.5 7.3 4.1 10 5.6 19.1 10.8 63.2 35.6 84.8 47.9 24 13.6 29.7 16.2 29.7 13.6 0-.6.4-1 .8-1s11.1-5.8 23.6-13c12.6-7.2 23-13 23.3-13 .2 0 1.6-.8 3.1-1.9 2.2-1.5 31.5-18.2 79.9-45.5 4-2.3 7.3-4.3 7.3-4.6 0-.3-2.6-2-5.7-3.8-9.1-5.1-14.2-8-39.8-22.7-13.2-7.6-26-14.9-28.5-16.3-2.5-1.4-11.9-6.8-21-12s-19-10.9-22-12.5c-3-1.7-8.3-4.8-11.8-6.9-3.4-2.1-7.2-3.8-8.5-3.7-1.2 0-13.2 6.4-26.7 14.1zM48.2 263.2c.3 78.3.3 79.4 2.4 83.9 2.7 5.9 7 9.9 16.9 15.8 6.6 3.9 38.6 23.4 53.2 32.3 2.1 1.3 4.7 2.9 5.8 3.5 1.1.6 15.6 9.5 32.2 19.6 16.6 10.2 31.1 18.8 32.3 19.2l2 .6V265.5l-11.7-6.6c-6.5-3.6-33.8-19.1-60.8-34.4-26.9-15.3-51-28.9-53.5-30.3-2.5-1.4-4.9-2.8-5.5-3.2-1.5-1.1-12.6-7-13.1-7-.2 0-.3 35.7-.2 79.2zM363 186.6c-2.5 1.4-6.2 3.7-8.2 5-2.1 1.3-4 2.4-4.2 2.4-.4 0-11.2 6-20.6 11.5-1.4.8-25.8 14.6-54.2 30.7l-51.7 29.3-.1 86.3v86.3l2.3-.7c1.2-.3 2.9-1.1 3.7-1.8.8-.6 2.6-1.7 4-2.5 2.8-1.6 38.9-23.5 52-31.6 4.7-2.9 14.8-9 22.5-13.7 53.9-32.7 53.7-32.6 57.8-40.2l2.2-4.1.3-79.8c.1-43.8-.1-79.7-.5-79.7-.4.1-2.8 1.2-5.3 2.6zM400.9 205.7c0 12-.2 44.9-.3 73-.2 28.2.1 51.3.6 51.3.7 0 38.9-22 82.3-47.3 9.3-5.4 14.8-11.2 17-17.7 3.3-10.1.1-22-7.5-27.9-2.9-2.3-15-9.4-47.5-28.1-1.6-.9-12.1-6.9-23.2-13.3-11.2-6.5-20.5-11.7-20.8-11.7-.3 0-.5 9.8-.6 21.7zM48 441.2c.1 47.2.2 51.6 1.9 55.3 2.7 6 6.8 10.3 12.4 13.1 4.4 2.3 6 2.5 13.1 2.2l8.1-.3 28.5-16.4c15.7-9.1 34.5-19.9 41.7-24 7.3-4.2 13.3-7.8 13.3-8.1-.1-.3-10.4-6.8-23.1-14.5-12.7-7.7-31.7-19.3-42.3-25.7-10.5-6.5-23.6-14.5-29.1-17.8-5.5-3.4-10.9-6.6-11.9-7.3-1.1-.7-4.4-2.7-7.3-4.5l-5.3-3.3v51.3z"/></svg>